<?xml version="1.0" standalone="no"?>
<!DOCTYPE svg PUBLIC "-//W3C//DTD SVG 20010904//EN"
 "http://www.w3.org/TR/2001/REC-SVG-20010904/DTD/svg10.dtd">
<svg version="1.0" xmlns="http://www.w3.org/2000/svg"
 width="128.000000pt" height="128.000000pt" viewBox="0 0 128.000000 128.000000"
 preserveAspectRatio="xMidYMid meet">
<metadata>
Created by potrace 1.11, written by Peter Selinger 2001-2013
</metadata>
<g transform="translate(0.000000,128.000000) scale(0.100000,-0.100000)"
fill="#000000" stroke="none">
<path d="M370 1125 c-146 -85 -269 -160 -275 -168 -10 -14 -14 -632 -4 -640 2
-2 126 -74 276 -161 l272 -157 278 160 278 160 0 320 c0 176 -2 321 -5 323 -3
2 -16 9 -30 17 -14 8 -136 79 -272 158 -136 79 -248 143 -250 142 -2 0 -122
-69 -268 -154z"/>
</g>
</svg>
